<svg width="1440" height="507" viewBox="0 0 1440 507" fill="none" xmlns="http://www.w3.org/2000/svg">
<rect width="1440" height="475" fill="#3B3A63"/>
<path d="M-76.2705 345.971C-38.4188 310.314 94.563 239 323.677 239C610.069 239 474.805 345.971 874.753 345.971C1274.7 345.971 1075.14 239 1368.22 239C1661.29 239 1510.16 345.971 1782.36 345.971" stroke="white" stroke-opacity="0.1" stroke-width="2.5"/>
<path d="M-266.643 505C-228.791 469.343 -95.8091 398.03 133.305 398.03C419.697 398.03 284.433 505 684.381 505C1084.33 505 884.772 398.03 1177.84 398.03C1470.92 398.03 1319.79 505 1591.99 505" stroke="white" stroke-opacity="0.1" stroke-width="2.5"/>
<path d="M-103.424 360.3C-65.5722 324.643 67.4097 253.33 296.524 253.33C582.916 253.33 447.652 360.3 847.599 360.3C1247.55 360.3 1047.99 253.33 1341.06 253.33C1634.13 253.33 1483.01 360.3 1755.2 360.3" stroke="white" stroke-opacity="0.1" stroke-width="2.5"/>
<path d="M-119.877 374.044C-82.0253 338.388 50.9566 267.074 280.07 267.074C566.463 267.074 431.199 374.044 831.146 374.044C1231.09 374.044 1031.54 267.074 1324.61 267.074C1617.68 267.074 1466.55 374.044 1738.75 374.044" stroke="white" stroke-opacity="0.1" stroke-width="2.5"/>
<path d="M-135.63 387.203C-97.7782 351.546 35.2036 280.233 264.318 280.233C550.71 280.233 415.446 387.203 815.393 387.203C1215.34 387.203 1015.78 280.233 1308.86 280.233C1601.93 280.233 1450.8 387.203 1723 387.203" stroke="white" stroke-opacity="0.1" stroke-width="2.5"/>
<path d="M-150.682 399.777C-112.83 364.12 20.1519 292.806 249.266 292.806C535.658 292.806 400.394 399.777 800.342 399.777C1200.29 399.777 1000.73 292.806 1293.8 292.806C1586.88 292.806 1435.75 399.777 1707.95 399.777" stroke="white" stroke-opacity="0.1" stroke-width="2.5"/>
<path d="M-165.032 411.765C-127.181 376.108 5.80128 304.794 234.915 304.794C521.308 304.794 386.044 411.765 785.991 411.765C1185.94 411.765 986.382 304.794 1279.45 304.794C1572.53 304.794 1421.4 411.765 1693.6 411.765" stroke="white" stroke-opacity="0.1" stroke-width="2.5"/>
<path d="M-178.683 423.168C-140.831 387.511 -7.84911 316.197 221.265 316.197C507.657 316.197 372.393 423.168 772.341 423.168C1172.29 423.168 972.732 316.197 1265.8 316.197C1558.88 316.197 1407.75 423.168 1679.95 423.168" stroke="white" stroke-opacity="0.1" stroke-width="2.5"/>
<path d="M-191.632 433.985C-153.78 398.328 -20.7983 327.015 208.316 327.015C494.708 327.015 359.444 433.985 759.391 433.985C1159.34 433.985 959.783 327.015 1252.85 327.015C1545.93 327.015 1394.8 433.985 1667 433.985" stroke="white" stroke-opacity="0.1" stroke-width="2.5"/>
<path d="M-203.88 444.217C-166.028 408.56 -33.0464 337.247 196.068 337.247C482.46 337.247 347.196 444.217 747.143 444.217C1147.09 444.217 947.535 337.247 1240.61 337.247C1533.68 337.247 1382.55 444.217 1654.75 444.217" stroke="white" stroke-opacity="0.1" stroke-width="2.5"/>
<path d="M-215.428 453.864C-177.576 418.207 -44.5942 346.893 184.52 346.893C470.912 346.893 335.648 453.864 735.596 453.864C1135.54 453.864 935.987 346.893 1229.06 346.893C1522.13 346.893 1371 453.864 1643.2 453.864" stroke="white" stroke-opacity="0.1" stroke-width="2.5"/>
<path d="M-226.275 462.925C-188.424 427.268 -55.4419 355.955 173.672 355.955C460.064 355.955 324.8 462.925 724.748 462.925C1124.7 462.925 925.139 355.955 1218.21 355.955C1511.28 355.955 1360.15 462.925 1632.35 462.925" stroke="white" stroke-opacity="0.1" stroke-width="2.5"/>
<path d="M-236.422 471.401C-198.57 435.744 -65.5884 364.43 163.526 364.43C449.918 364.43 314.654 471.401 714.601 471.401C1114.55 471.401 914.993 364.43 1208.06 364.43C1501.14 364.43 1350.01 471.401 1622.21 471.401" stroke="white" stroke-opacity="0.1" stroke-width="2.5"/>
<path d="M-245.867 479.292C-208.016 443.635 -75.0337 372.321 154.08 372.321C440.473 372.321 305.209 479.292 705.156 479.292C1105.1 479.292 905.547 372.321 1198.62 372.321C1491.69 372.321 1340.56 479.292 1612.76 479.292" stroke="white" stroke-opacity="0.1" stroke-width="2.5"/>
<path d="M-254.612 486.597C-216.761 450.94 -83.7788 379.626 145.335 379.626C431.728 379.626 296.464 486.597 696.411 486.597C1096.36 486.597 896.802 379.626 1189.87 379.626C1482.95 379.626 1331.82 486.597 1604.02 486.597" stroke="white" stroke-opacity="0.1" stroke-width="2.5"/>
<path d="M-262.656 493.316C-224.805 457.66 -91.8227 386.346 137.291 386.346C423.684 386.346 288.42 493.316 688.367 493.316C1088.31 493.316 888.758 386.346 1181.83 386.346C1474.9 386.346 1323.77 493.316 1595.97 493.316" stroke="white" stroke-opacity="0.1" stroke-width="2.5"/>
<path d="M-270 499.451C-232.148 463.794 -99.1665 392.48 129.947 392.48C416.34 392.48 281.076 499.451 681.023 499.451C1080.97 499.451 881.414 392.48 1174.49 392.48C1467.56 392.48 1316.43 499.451 1588.63 499.451" stroke="white" stroke-opacity="0.1" stroke-width="2.5"/>
<rect x="27" width="150" height="191" fill="#52517A"/>
<g opacity="0.6">
<path d="M1381.27 127.685L1293.85 160.299L1309.31 68.2801L1381.27 127.685Z" fill="#9A99BF" fill-opacity="0.4"/>
<path d="M1315.63 86.6306L1380.24 136.814L1303.61 165.448L1315.63 86.6306Z" stroke="white" stroke-opacity="0.62" stroke-width="1.5"/>
</g>
<circle cx="56.5" cy="71.5" r="7.5" fill="#E9F5ED" fill-opacity="0.29"/>
<circle cx="86.5" cy="71.5" r="7.5" fill="#E9F5ED" fill-opacity="0.29"/>
<circle cx="116.5" cy="71.5" r="7.5" fill="#E9F5ED" fill-opacity="0.29"/>
<circle cx="56.5" cy="101.5" r="7.5" fill="#E9F5ED" fill-opacity="0.29"/>
<circle cx="86.5" cy="101.5" r="7.5" fill="#E9F5ED" fill-opacity="0.29"/>
<circle cx="116.5" cy="101.5" r="7.5" fill="#E9F5ED" fill-opacity="0.29"/>
<circle cx="56.5" cy="131.5" r="7.5" fill="#E9F5ED" fill-opacity="0.29"/>
<circle cx="86.5" cy="131.5" r="7.5" fill="#E9F5ED" fill-opacity="0.29"/>
<circle cx="116.5" cy="131.5" r="7.5" fill="#E9F5ED" fill-opacity="0.29"/>
<circle cx="146.5" cy="71.5" r="7.5" transform="rotate(90 146.5 71.5)" fill="#E9F5ED" fill-opacity="0.29"/>
<circle cx="146.5" cy="101.5" r="7.5" transform="rotate(90 146.5 101.5)" fill="#E9F5ED" fill-opacity="0.29"/>
<circle cx="146.5" cy="131.5" r="7.5" transform="rotate(90 146.5 131.5)" fill="#E9F5ED" fill-opacity="0.29"/>
</svg>
